<svg width="244" height="274" viewBox="0 0 244 274" fill="none" xmlns="http://www.w3.org/2000/svg">
<path d="M209 83C228.33 83 244 98.67 244 118V241H243.941C242.905 259.399 227.659 274 209 274C190.341 274 175.095 259.399 174.059 241H174V118C174 98.67 189.67 83 209 83Z" fill="#87A9D3"/>
<path d="M35 0C54.33 0 70 15.67 70 35V153C70 172.33 54.33 188 35 188C15.67 188 0 172.33 0 153V35C0 15.67 15.67 0 35 0Z" fill="#721011"/>
<path d="M122 35C141.33 35 157 50.67 157 70C157 70.3345 156.994 70.6678 156.984 71H157V119H156.984C156.455 137.868 140.996 153 122 153C103.004 153 87.545 137.868 87.0156 119H87V71H87.0156C87.0063 70.6678 87 70.3345 87 70C87 50.67 102.67 35 122 35Z" fill="#6B5E58"/>
</svg>
