<svg width="592" height="274" viewBox="0 0 592 274" fill="none" xmlns="http://www.w3.org/2000/svg">
<path d="M35 83C54.33 83 70 98.67 70 118C70 137.33 54.33 153 35 153C15.67 153 0 137.33 0 118C0 98.67 15.67 83 35 83ZM24 131.598H32.541C34.491 131.598 36.311 131.338 38.001 130.818C39.691 130.272 41.1602 129.453 42.4082 128.361C43.6561 127.243 44.6441 125.852 45.3721 124.188C46.1001 122.498 46.4639 120.509 46.4639 118.221C46.4638 115.959 46.1261 113.996 45.4502 112.332C44.8002 110.668 43.8636 109.29 42.6416 108.198C41.4197 107.106 39.9511 106.3 38.2354 105.78C36.5454 105.26 34.647 105 32.541 105H24V131.598ZM32.541 108.003C34.127 108.003 35.5571 108.211 36.8311 108.627C38.131 109.017 39.2234 109.628 40.1074 110.46C41.0173 111.292 41.7189 112.358 42.2129 113.658C42.7068 114.932 42.9541 116.453 42.9541 118.221C42.9541 120.119 42.6807 121.731 42.1348 123.057C41.5888 124.383 40.835 125.462 39.873 126.294C38.937 127.1 37.8316 127.685 36.5576 128.049C35.3097 128.413 33.9709 128.595 32.541 128.595H27.2764V108.003H32.541Z" fill="#20426A"/>
<path d="M122 83C141.33 83 157 98.67 157 118C157 137.33 141.33 153 122 153C102.67 153 87 137.33 87 118C87 98.67 102.67 83 122 83ZM111 131.598H114.393L116.772 124.5H127.575L129.915 131.598H133.308L124.182 105H120.126L111 131.598ZM126.522 121.38H117.786L122.115 108.12H122.232L126.522 121.38Z" fill="#B7B7AB"/>
<path d="M557 83C576.33 83 592 98.67 592 118C592 137.33 576.33 153 557 153C537.67 153 522 137.33 522 118C522 98.67 537.67 83 557 83ZM547 131.598H550.276V119.43H563.731V131.598H567.007V105H563.731V116.505H550.276V105H547V131.598Z" fill="#6D705F"/>
<path d="M470 83C489.33 83 505 98.67 505 118C505 137.33 489.33 153 470 153C450.67 153 435 137.33 435 118C435 98.67 450.67 83 470 83ZM469.892 104C468.254 104 466.876 104.195 465.758 104.585C464.666 104.975 463.769 105.482 463.067 106.106C462.391 106.73 461.91 107.445 461.624 108.251C461.338 109.057 461.195 109.876 461.195 110.708C461.195 112.138 461.533 113.334 462.209 114.296C462.911 115.258 463.769 116.09 464.783 116.792C465.797 117.494 466.902 118.118 468.098 118.664C469.32 119.21 470.451 119.782 471.491 120.38C472.557 120.952 473.402 121.563 474.026 122.213C474.676 122.837 475.014 123.656 475.04 124.67C475.04 125.346 474.858 125.918 474.494 126.386C474.156 126.854 473.675 127.231 473.051 127.517C472.427 127.803 471.686 128.011 470.828 128.141C469.996 128.271 469.073 128.336 468.059 128.336C467.227 128.336 466.434 128.271 465.68 128.141C464.952 128.011 464.289 127.868 463.691 127.712C463.015 127.53 462.378 127.309 461.78 127.049L461 130.208C461.598 130.442 462.261 130.65 462.989 130.832C463.613 130.988 464.354 131.131 465.212 131.261C466.07 131.391 467.019 131.456 468.059 131.456C469.151 131.456 470.295 131.365 471.491 131.183C472.713 131.001 473.831 130.65 474.845 130.13C475.859 129.61 476.691 128.882 477.341 127.946C478.017 127.01 478.355 125.775 478.355 124.241C478.355 122.915 478.004 121.797 477.302 120.887C476.626 119.951 475.78 119.145 474.767 118.469C473.753 117.767 472.635 117.156 471.413 116.636C470.217 116.09 469.112 115.544 468.098 114.998C467.084 114.426 466.239 113.815 465.563 113.165C464.887 112.489 464.536 111.67 464.51 110.708C464.51 109.486 464.926 108.589 465.758 108.017C466.59 107.419 467.968 107.12 469.892 107.12C470.724 107.12 471.517 107.172 472.271 107.276C473.051 107.354 473.74 107.458 474.338 107.588C475.014 107.718 475.664 107.861 476.288 108.017L476.834 104.858C476.184 104.702 475.495 104.559 474.767 104.429C474.143 104.325 473.402 104.234 472.544 104.156C471.712 104.052 470.828 104 469.892 104Z" fill="#6E0114"/>
<path d="M209 0C228.33 0 244 15.67 244 35V153C244 172.33 228.33 188 209 188C189.67 188 174 172.33 174 153V35C174 15.67 189.67 0 209 0ZM199 131.598H202.276V121.029H206.722L214.444 131.598H218.305L210.778 121.614C210.622 121.406 210.427 121.172 210.193 120.912C209.985 120.626 209.829 120.431 209.725 120.327V120.249C210.713 119.963 211.584 119.521 212.338 118.923C213.092 118.299 213.729 117.493 214.249 116.505C214.769 115.491 215.042 114.178 215.068 112.566C215.068 111.111 214.847 109.901 214.405 108.939C213.963 107.977 213.326 107.21 212.494 106.638C211.662 106.04 210.648 105.624 209.452 105.39C208.282 105.13 206.982 105 205.552 105H199V131.598ZM205.513 107.925C206.501 107.925 207.385 107.99 208.165 108.12C208.945 108.25 209.595 108.497 210.115 108.861C210.661 109.225 211.064 109.758 211.324 110.46C211.61 111.136 211.753 112.02 211.753 113.112C211.727 113.814 211.61 114.464 211.402 115.062C211.194 115.66 210.869 116.193 210.427 116.661C209.985 117.103 209.413 117.454 208.711 117.714C208.009 117.974 207.151 118.104 206.137 118.104H202.276V107.925H205.513Z" fill="#721011"/>
<path d="M296 35C315.33 35 331 50.67 331 70C331 70.3345 330.994 70.6678 330.984 71H331V119H330.984C330.455 137.868 314.996 153 296 153C277.004 153 261.545 137.868 261.016 119H261V71H261.016C261.006 70.6678 261 70.3345 261 70C261 50.67 276.67 35 296 35ZM285.162 131.598H289.296L296.355 108.159H296.394L303.414 131.598H307.548L313.671 105H310.356L305.247 128.478H305.208L298.461 105H294.327L287.502 128.478H287.463L282.315 105H279L285.162 131.598Z" fill="#6B5E58"/>
<path d="M383 83C402.33 83 418 98.67 418 118V241H417.941C416.905 259.399 401.659 274 383 274C364.341 274 349.095 259.399 348.059 241H348V118C348 98.67 363.67 83 383 83ZM381 131.598H384.276V105H381V131.598Z" fill="#87A9D3"/>
</svg>
